# AST/ASF file generated using VICON BodyLanguage
# -----------------------------------------------
:version 1.10
:name VICON
:units
  mass 1.0
  length 0.45
  angle deg
:documentation
   .ast/.asf automatically generated from VICON data using
   VICON BodyBuilder and BodyLanguage model FoxedUp or BRILLIANT.MOD
:root
   order TX TY TZ RX RY RZ
   axis XYZ
   position 0 0 0  
   orientation 0 0 0 
:bonedata
  begin
     id 1 
     name lhipjoint
     direction 0.64773 -0.699417 0.302095 
     length 2.48597 
     axis 0 0 0  XYZ
  end
  begin
     id 2 
     name lfemur
     direction 0.34202 -0.939693 0  
     length 6.71947  
     axis 0 0 20  XYZ
    dof rx ry rz
    limits (-160.0 20.0)
           (-70.0 70.0)
           (-60.0 70.0)
  end
  begin
     id 3 
     name ltibia
     direction 0.34202 -0.939693 0   
     length 8.08777   
     axis 0 0 20   XYZ
    dof rx
    limits (-10.0 170.0)
  end
  begin
     id 4 
     name lfoot
     direction 0.0808503 -0.222134 0.971658   
     length 2.08264   
     axis -90 7.62852e-016 20   XYZ
    dof rx rz
    limits (-45.0 90.0)
           (-70.0 20.0)
  end
  begin
     id 5 
     name ltoes
     direction 1.53502e-011 -4.22007e-011 1   
     length 1.04662   
     axis -90 7.62852e-016 20   XYZ
    dof rx
    limits (-90.0 20.0)
  end
  begin
     id 6 
     name rhipjoint
     direction -0.610924 -0.726792 0.313919   
     length 2.39233  
     axis 0 0 0  XYZ 
  end
  begin
     id 7 
     name rfemur
     direction -0.34202 -0.939693 0   
     length 6.96955   
     axis 0 0 -20   XYZ
    dof rx ry rz
    limits (-160.0 20.0)
           (-70.0 70.0)
           (-70.0 60.0)
  end
  begin
     id 8 
     name rtibia
     direction -0.34202 -0.939693 0   
     length 8.19584   
     axis 0 0 -20   XYZ
    dof rx
    limits (-10.0 170.0)
 end
 begin
     id 9 
     name rfoot
     direction -0.077777 -0.213691 0.9738   
     length 2.07539  
     axis -90 -7.62852e-016 -20   XYZ
    dof rx rz
    limits (-45.0 90.0)
           (-20.0 70.0)
  end
  begin
     id 10 
     name rtoes
     direction -1.53558e-011 -4.22006e-011 1   
     length 1.04381   
     axis -90 -7.62852e-016 -20   XYZ
    dof rx
    limits (-90.0 20.0)
  end
  begin
     id 11 
     name lowerback
     direction -0.00971646 0.996074 0.0879841   
     length 1.67643   
     axis 0 0 0   XYZ
    dof rx ry rz
    limits (-20.0 45.0)
           (-30.0 30.0)
           (-30.0 30.0)
  end
  begin
     id 12 
     name upperback
     direction 0.0127391 0.991676 0.128127   
     length 1.63741   
     axis 0 0 0   XYZ
    dof rx ry rz
    limits (-20.0 45.0)
           (-30.0 30.0)
           (-30.0 30.0)
  end
  begin
     id 13 
     name thorax
     direction 0.0167583 0.996049 0.0872067   
     length 1.65931   
     axis 0 0 0   XYZ
    dof rx ry rz
    limits (-20.0 45.0)
           (-30.0 30.0)
           (-30.0 30.0)
  end
  begin
     id 14 
     name lowerneck
     direction -0.0317829 0.998312 0.0486079   
     length 1.79021   
     axis 0 0 0   XYZ
    dof rx ry rz
    limits (-20.0 45.0)
           (-30.0 30.0)
           (-30.0 30.0)
  end
  begin
     id 15 
     name upperneck
     direction 0.0896851 0.972452 -0.215159   
     length 1.78797   
     axis 0 0 0   XYZ
    dof rx ry rz
    limits (-20.0 45.0)
           (-30.0 30.0)
           (-30.0 30.0)
  end
  begin
     id 16
     name head
     direction 0.0310949 0.996503 -0.0775582  
     length 1.81549  
     axis 0 0 0   XYZ
    dof rx ry rz
    limits (-20.0 45.0)
           (-30.0 30.0)
           (-30.0 30.0)
  end
  begin
     id 17 
     name lclavicle
     direction 0.853638 0.502051 -0.138733  
     length 3.31627  
     axis 0 0 0   XYZ
    dof ry rz
    limits (-20.0 10.0)
           (0.0 20.0)
  end
  begin
     id 18 
     name lhumerus
     direction 1 -4.48962e-011 -1.41788e-018   
     length 5.54893   
     axis 180 -30 -90   XYZ
    dof rx ry rz
    limits (-60.0 90.0)
           (-90.0 90.0)
           (-90.0 90.0)
  end
  begin
     id 19
     name lradius
     direction 1 -4.48962e-011 -4.95754e-027   
     length 3.02898   
     axis 180 -30 -90   XYZ
    dof rx
    limits (-10.0 170.0)
  end
  begin
     id 20
     name lwrist
     direction 1 -4.48952e-011 -1.03764e-026   
     length 1.51449   
     axis 9.09556e-015 90 90   XYZ
    dof ry
    limits (-180.0 0.0)
 end
  begin
     id 21 
     name lhand
     direction 1 -4.4902e-011 -2.07528e-026   
     length 0.640951   
     axis 1.3242e-014 90 90   XYZ
    dof rx rz
    limits (-90.0 90.0)
           (-45.0 45.0)
  end
  begin
     id 22 
     name lfingers
     direction 1 -4.49014e-011 -4.15056e-026   
     length 0.516751   
     axis 2.64841e-014 90 90   XYZ
    dof rx
    limits (0.0 90.0)
  end
  begin
     id 23
     name lthumb
     direction 0.707107 -6.35008e-011 0.707107   
     length 0.741954   
     axis -90 45 2.85299e-015   XYZ
    dof rx rz
    limits (-45.0 45.0)
           (-45.0 45.0)
  end
  begin
     id 24 
     name rclavicle
     direction -0.888531 0.455324 -0.0565039   
     length 3.20126  
     axis 0 0 0   XYZ 
    dof ry rz
    limits (-10.0 20.0)
           (-20.0 0.0)
  end
  begin
     id 25 
     name rhumerus
     direction -1 -4.48946e-011 -8.98298e-028  
     length 5.3519   
     axis 180 30 90   XYZ
    dof rx ry rz
    limits (-90.0 60.0)
           (-90.0 90.0)
           (-90.0 90.0)
  end
  begin
     id 26 
     name rradius
     direction -1 -4.4899e-011 -3.18779e-027   
     length 3.02531   
     axis 180 30 90   XYZ
    dof rx
    limits (-10.0 170.0)
  end
  begin
     id 27 
     name rwrist
     direction -1 -4.4897e-011 -1.03764e-026   
     length 1.51266   
     axis 9.09556e-015 -90 -90   XYZ
    dof ry
    limits (-180.0 0.0)
  end
  begin
     id 28
     name rhand
     direction -1 -4.48941e-011 -2.07528e-026   
     length 0.78389   
     axis 1.3242e-014 -90 -90   XYZ
    dof rx rz
    limits (-90.0 90.0)
           (-45.0 45.0)
  end
  begin
     id 29
     name rfingers
     direction -1 -4.49012e-011 -4.15056e-026   
     length 0.631992   
     axis 2.64841e-014 -90 -90   XYZ
    dof rx
    limits (0.0 90.0)
  end
  begin
     id 30
     name rthumb
     direction -0.707107 -6.3496e-011 0.707107   
     length 0.907418   
     axis -90 -45 -2.85299e-015   XYZ
    dof rx rz
    limits (-45.0 45.0)
           (-45.0 45.0)
  end
:hierarchy
  begin
    root lhipjoint rhipjoint lowerback
    lhipjoint lfemur
    lfemur ltibia
    ltibia lfoot
    lfoot ltoes
    rhipjoint rfemur
    rfemur rtibia
    rtibia rfoot
    rfoot rtoes
    lowerback upperback
    upperback thorax
    thorax lowerneck lclavicle rclavicle
    lowerneck upperneck
    upperneck head
    lclavicle lhumerus
    lhumerus lradius
    lradius lwrist
    lwrist lhand lthumb
    lhand lfingers
    rclavicle rhumerus
    rhumerus rradius
    rradius rwrist
    rwrist rhand rthumb
    rhand rfingers
  end

#!OML:ASF E:\Style3\Style3.ASF
:FULLY-SPECIFIED
:DEGREES
2476
root 0.389957 17.8112 0.192609 -161.235 134.484 -183.741
lowerback -2.30433 -5.45174 0.732503
upperback -13.2196 -6.98442 1.68473
thorax -12.8772 -3.262 2.01772
lowerneck -7.39336 -10.4024 -12.0957
upperneck 13.3657 -15.0177 15.1071
head 7.39443 -6.84218 5.38462
rclavicle 1.42131e-014 -1.15295e-014
rhumerus -154.971 -164.759 -526.998
rradius 120.767
rwrist -39.5525
rhand -0.880676 27.0814
rfingers 7.12502
rthumb 24.7466 -1.33783
lclavicle 1.42131e-014 -1.15295e-014
lhumerus -219.668 174.473 -163.142
lradius 55.6705
lwrist -11.7872
lhand -15.5238 2.38636
lfingers 7.12502
lthumb 10.6596 32.096
rfemur -33.8919 22.2985 7.78436
rtibia 16.8125
rfoot -9.67588 6.03232
rtoes -22.5475
lfemur -11.0881 41.5621 -31.3499
ltibia 3.18055e-015
lfoot -14.2056 2.75507
ltoes 19.0828
2477
root 0.388145 17.8087 0.199339 -161.366 134.967 -183.854
lowerback -2.32263 -5.5308 0.856947
upperback -13.2118 -7.08052 1.7889
thorax -12.8577 -3.31783 2.06919
lowerneck -7.53949 -10.3423 -12.0624
upperneck 13.4885 -14.9166 14.9662
head 7.43043 -6.79285 5.33993
rclavicle -2.72832e-014 -9.93923e-015
rhumerus -154.832 -164.71 -527.054
rradius 120.721
rwrist -39.4534
rhand -0.860051 27.0899
rfingers 7.12502
rthumb 24.7663 -1.32667
lclavicle -2.72832e-014 -9.93923e-015
lhumerus -219.776 174.458 -162.999
lradius 55.861
lwrist -11.7165
lhand -15.4413 2.90886
lfingers 7.12502
lthumb 10.7391 32.6144
rfemur -34.0372 22.5559 7.8088
rtibia 16.9928
rfoot -9.69782 6.33255
rtoes -21.9693
lfemur -11.0398 42.0669 -31.3777
ltibia 2.8625e-014
lfoot -14.2613 2.7285
ltoes 18.6719
2478
root 0.388102 17.8072 0.205411 -161.316 135.409 -183.761
lowerback -2.40442 -5.54666 0.90399
upperback -13.1964 -7.10618 1.76137
thorax -12.7989 -3.34077 2.00635
lowerneck -7.61 -10.3247 -11.915
upperneck 13.5179 -14.8949 14.883
head 7.43064 -6.77722 5.28892
rclavicle 4.91495e-014 -2.42517e-014
rhumerus -155.016 -164.772 -526.976
rradius 120.736
rwrist -39.2855
rhand -1.09891 27.2152
rfingers 7.12502
rthumb 24.5374 -1.23264
lclavicle 4.91495e-014 -2.42517e-014
lhumerus -219.59 174.469 -162.759
lradius 56.0669
lwrist -11.6272
lhand -15.5348 3.2155
lfingers 7.12502
lthumb 10.6489 32.9257
rfemur -34.1961 22.6155 7.74729
rtibia 17.193
rfoot -9.76627 6.62313
rtoes -22.1417
lfemur -11.0234 42.4799 -31.5483
ltibia -2.54444e-014
lfoot -14.2804 2.66174
ltoes 18.7422
2479
root 0.385643 17.805 0.208292 -161.126 135.838 -183.51
lowerback -2.4474 -5.57712 0.824807
upperback -13.2117 -7.15877 1.71704
thorax -12.7857 -3.36271 2.00209
lowerneck -7.68566 -10.3079 -11.8064
upperneck 13.575 -14.8719 14.7952
head 7.4432 -6.76228 5.24251
rclavicle 2.04748e-014 -2.14687e-014
rhumerus -155.166 -164.871 -526.927
rradius 120.727
rwrist -39.0905
rhand -1.13314 27.5672
rfingers 7.12502
rthumb 24.5046 -0.885098
lclavicle 2.04748e-014 -2.14687e-014
lhumerus -219.405 174.471 -162.49
lradius 56.2607
lwrist -11.556
lhand -15.6535 2.88108
lfingers 7.12502
lthumb 10.5344 32.5971
rfemur -34.3745 22.5864 7.56532
rtibia 17.3629
rfoot -9.7682 6.99155
rtoes -21.7605
lfemur -11.0641 42.8306 -31.879
ltibia 1.59028e-014
lfoot -14.2854 2.56869
ltoes 19.0369
2480
root 0.384171 17.8033 0.210767 -161.071 136.273 -183.358
lowerback -2.41214 -5.59277 0.823947
upperback -13.2205 -7.18658 1.68379
thorax -12.8224 -3.37899 1.97445
lowerneck -7.63844 -10.3209 -11.7138
upperneck 13.4943 -14.8825 14.712
head 7.39599 -6.77348 5.20092
rclavicle 3.598e-014 -1.98785e-015
rhumerus -155.261 -164.998 -526.842
rradius 120.679
rwrist -38.9034
rhand -1.35228 27.7822
rfingers 7.12502
rthumb 24.2945 -0.698351
lclavicle 3.598e-014 -1.98785e-015
lhumerus -219.254 174.605 -162.199
lradius 56.5062
lwrist -11.4217
lhand -15.638 2.90607
lfingers 7.12502
lthumb 10.5494 32.6213
rfemur -34.4767 22.5959 7.48784
rtibia 17.5159
rfoot -9.76709 7.375
rtoes -21.3027
lfemur -11.0013 43.2266 -32.0672
ltibia 3.18055e-015
lfoot -14.3013 2.43806
ltoes 19.5127
2481
root 0.383415 17.8009 0.215413 -161.085 136.653 -183.363
lowerback -2.40431 -5.66269 0.868681
upperback -13.2506 -7.27444 1.76707
thorax -12.8569 -3.42136 2.05137
lowerneck -7.67204 -10.2707 -11.4945
upperneck 13.4588 -14.7861 14.4407
head 7.33689 -6.73567 5.08859
rclavicle -1.20762e-014 -8.34896e-015
rhumerus -155.145 -165.099 -526.891
rradius 120.669
rwrist -38.8143
rhand -1.44645 27.779
rfingers 7.12502
rthumb 24.2042 -0.713609
lclavicle -1.20762e-014 -8.34896e-015
lhumerus -219.32 174.673 -161.949
lradius 56.8195
lwrist -11.3591
lhand -15.4086 2.90657
lfingers 7.12502
lthumb 10.7707 32.6104
rfemur -34.5888 22.5764 7.54699
rtibia 17.6365
rfoot -9.83944 7.74023
rtoes -21.5878
lfemur -10.9836 43.6017 -32.1583
ltibia -3.18055e-015
lfoot -14.3723 2.35635
ltoes 19.2724
2482
root 0.382991 17.8004 0.221342 -161.042 137.047 -183.252
lowerback -2.45472 -5.71671 0.802941
upperback -13.2334 -7.35123 1.80516
thorax -12.7892 -3.45242 2.1264
lowerneck -7.73407 -10.2094 -11.3007
upperneck 13.43 -14.683 14.2477
head 7.29324 -6.68886 5.00581
rclavicle 3.44891e-014 2.82274e-014
rhumerus -155.042 -165.085 -526.972
rradius 120.614
rwrist -38.8576
rhand -1.27181 27.5347
rfingers 7.12502
rthumb 24.3717 -0.935529
lclavicle 3.44891e-014 2.82274e-014
lhumerus -219.334 174.82 -161.65
lradius 57.2233
lwrist -11.1484
lhand -15.2893 2.9882
lfingers 7.12502
lthumb 10.8857 32.686
rfemur -34.636 22.6011 7.48164
rtibia 17.6727
rfoot -9.87275 8.04995
rtoes -21.7333
lfemur -10.9178 43.9614 -32.3278
ltibia -3.02153e-014
lfoot -14.4108 2.33671
ltoes 18.3055
2483
root 0.386859 17.7979 0.2299 -161.187 137.437 -183.326
lowerback -2.50858 -5.71991 0.904555
upperback -13.1824 -7.35065 1.84558
thorax -12.7031 -3.46439 2.10492
lowerneck -7.86978 -10.1814 -11.16
upperneck 13.4936 -14.6356 14.1111
head 7.30915 -6.6613 4.93894
rclavicle -7.2954e-014 -1.19271e-015
rhumerus -154.986 -165.048 -527.049
rradius 120.593
rwrist -39.1878
rhand -1.08684 27.0111
rfingers 7.12502
rthumb 24.549 -1.43516
lclavicle -7.2954e-014 -1.19271e-015
lhumerus -219.311 174.992 -161.293
lradius 57.6827
lwrist -10.8195
lhand -15.2738 3.09114
lfingers 7.12502
lthumb 10.9007 32.7882
rfemur -34.5622 22.6132 7.61568
rtibia 17.6618
rfoot -9.86912 8.47054
rtoes -21.6465
lfemur -10.737 44.3904 -32.2489
ltibia -1.74931e-014
lfoot -14.4064 2.13212
ltoes 18.4773
2484
root 0.387504 17.7959 0.235558 -161.291 137.751 -183.482
lowerback -2.62788 -5.78048 1.05657
upperback -13.1947 -7.42033 1.93126
thorax -12.6533 -3.51169 2.10879
lowerneck -7.85053 -10.1038 -11.0977
upperneck 13.5008 -14.5333 14.0797
head 7.28669 -6.61278 4.93375
rclavicle -1.2926e-013 -4.01545e-014
rhumerus -154.856 -165.142 -527.22
rradius 120.579
rwrist -39.3585
rhand -1.28145 26.6715
rfingers 7.12502
rthumb 24.3624 -1.79988
lclavicle -1.2926e-013 -4.01545e-014
lhumerus -219.434 175.303 -161
lradius 58.2106
lwrist -10.4529
lhand -15.1893 2.967
lfingers 7.12502
lthumb 10.9821 32.6597
rfemur -34.6168 22.6411 7.75667
rtibia 17.6561
rfoot -9.80916 8.82067
rtoes -21.4101
lfemur -10.7132 44.7493 -32.1716
ltibia -1.43125e-014
lfoot -14.3981 1.84763
ltoes 19.991
2485
root 0.383656 17.7957 0.238779 -161.315 137.996 -183.591
lowerback -2.7375 -5.90754 1.12838
upperback -13.2413 -7.58085 2.05096
thorax -12.6332 -3.59142 2.20304
lowerneck -7.93201 -9.94953 -10.9546
upperneck 13.7025 -14.3337 13.9557
head 7.31793 -6.51078 4.89396
rclavicle 2.41523e-014 5.08889e-014
rhumerus -154.598 -165.286 -527.445
rradius 120.537
rwrist -39.5558
rhand -1.4301 26.5553
rfingers 7.12502
rthumb 24.2199 -1.93517
lclavicle 2.41523e-014 5.08889e-014
lhumerus -219.653 175.62 -160.769
lradius 58.7308
lwrist -10.2366
lhand -15.0928 2.54736
lfingers 7.12502
lthumb 11.0752 32.2351
rfemur -34.7257 22.7032 7.81188
rtibia 17.636
rfoot -9.7457 9.05871
rtoes -20.9293
lfemur -10.7915 45.0074 -32.2048
ltibia -2.8625e-014
lfoot -14.3855 1.72497
ltoes 20.2563
2486
root 0.377675 17.794 0.242948 -161.226 138.245 -183.524
lowerback -2.78919 -5.96716 1.04887
upperback -13.2735 -7.66228 2.10293
thorax -12.6196 -3.62023 2.30399
lowerneck -8.04565 -9.88022 -10.8177
upperneck 13.8382 -14.2426 13.839
head 7.34988 -6.4603 4.84124
rclavicle -6.16232e-014 -4.65156e-014
rhumerus -154.555 -165.461 -527.524
rradius 120.422
rwrist -39.6578
rhand -1.51037 26.6292
rfingers 7.12502
rthumb 24.1429 -1.87158
lclavicle -6.16232e-014 -4.65156e-014
lhumerus -219.64 175.979 -160.367
lradius 59.2434
lwrist -10.2211
lhand -15.1672 3.05819
lfingers 7.12502
lthumb 11.0035 32.7498
rfemur -34.813 22.6443 7.77607
rtibia 17.6118
rfoot -9.66255 9.38472
rtoes -20.4251
lfemur -10.9115 45.2173 -32.4019
ltibia 1.27222e-014
lfoot -14.3915 1.73678
ltoes 20.1072
